<svg width="12" height="9" viewBox="0 0 12 9" fill="none" xmlns="http://www.w3.org/2000/svg">
<path fill-rule="evenodd" clip-rule="evenodd" d="M3.33334 0.988708H9V8.98871H3.33334V0.988708Z" fill="#F7FCFF"/>
<path d="M6.00033 7.6557H5.77181L5.91146 6.50043C5.88869 6.5046 4.37518 6.78143 4.5013 6.64008C4.62678 6.49941 4.69971 6.2431 4.7015 6.23676L3.33334 5.30511C3.33334 5.30511 3.54934 5.30229 3.72494 5.19574C3.89907 5.09002 3.55502 4.46707 3.54916 4.45648L4.24056 4.55902L4.5013 4.26898L5.02279 4.82562H5.25716L5.02279 3.55023L5.44271 3.78949L5.99056 2.98871L6.00033 7.6557ZM6.55697 3.78949L6.97689 3.55023L6.74252 4.82562H6.97689L7.49837 4.26898L7.76009 4.55902L8.45052 4.45648C8.44336 4.46943 8.10095 5.09023 8.27474 5.19574C8.44763 5.3007 8.6598 5.30501 8.66634 5.30511L7.29818 6.23676C7.29962 6.24185 7.37263 6.49904 7.49837 6.64008C7.62486 6.78183 6.10254 6.50306 6.08822 6.50043L6.22787 7.6557H6.00033V2.98871L6.55697 3.78949Z" fill="#E31D1C"/>
<path fill-rule="evenodd" clip-rule="evenodd" d="M8.66667 0.988708H11.3333V8.98871H8.66667V0.988708Z" fill="#E31D1C"/>
<path fill-rule="evenodd" clip-rule="evenodd" d="M0.666668 0.988708H3.33333V8.98871H0.666668V0.988708Z" fill="#E31D1C"/>
</svg>
