<svg width="16" height="17" viewBox="0 0 16 17" fill="none" xmlns="http://www.w3.org/2000/svg">
<path d="M3.40625 13.5825C2.83125 13.0075 3.2125 11.8012 2.91875 11.095C2.625 10.3887 1.5 9.76996 1.5 8.98871C1.5 8.20746 2.6125 7.61371 2.91875 6.88246C3.225 6.15121 2.83125 4.96996 3.40625 4.39496C3.98125 3.81996 5.1875 4.20121 5.89375 3.90746C6.6 3.61371 7.21875 2.48871 8 2.48871C8.78125 2.48871 9.375 3.60121 10.1062 3.90746C10.8375 4.21371 12.0188 3.81996 12.5938 4.39496C13.1687 4.96996 12.7875 6.17621 13.0813 6.88246C13.375 7.58871 14.5 8.20746 14.5 8.98871C14.5 9.76996 13.3875 10.3637 13.0813 11.095C12.775 11.8262 13.1687 13.0075 12.5938 13.5825C12.0188 14.1575 10.8125 13.7762 10.1062 14.07C9.4 14.3637 8.78125 15.4887 8 15.4887C7.21875 15.4887 6.625 14.3762 5.89375 14.07C5.1625 13.7637 3.98125 14.1575 3.40625 13.5825Z" stroke="#184EC9" stroke-linecap="round" stroke-linejoin="round"/>
<path d="M10.75 7.48871L7.08125 10.9887L5.25 9.23871" stroke="#184EC9" stroke-linecap="round" stroke-linejoin="round"/>
</svg>
