<svg width="25" height="24" viewBox="0 0 25 24" fill="none" xmlns="http://www.w3.org/2000/svg">
<path d="M5.89999 2.10001H19.1C20.2 2.10001 21.1 3.00001 21.1 4.10001V6.30001C21.1 7.10001 20.6 8.10001 20.1 8.60001L15.8 12.4C15.2 12.9 14.8 13.9 14.8 14.7V19C14.8 19.6 14.4 20.4 13.9 20.7L12.5 21.6C11.2 22.4 9.39999 21.5 9.39999 19.9V14.6C9.39999 13.9 8.99999 13 8.59999 12.5L4.79999 8.50001C4.29999 8.00001 3.89999 7.10001 3.89999 6.50001V4.20001C3.89999 3.00001 4.79999 2.10001 5.89999 2.10001Z" stroke="#212121" stroke-width="1.5" stroke-miterlimit="10" stroke-linecap="round" stroke-linejoin="round"/>
<path d="M11.43 2.10001L6.5 10" stroke="#212121" stroke-width="1.5" stroke-miterlimit="10" stroke-linecap="round" stroke-linejoin="round"/>
</svg>
