<svg width="20" height="18" viewBox="0 0 20 18" fill="none" xmlns="http://www.w3.org/2000/svg">
<path d="M10.8199 1.57958L9.99919 2.40208L9.17594 1.57883C7.07688 -0.520235 3.67361 -0.520235 1.57455 1.57883C-0.524523 3.6779 -0.524523 7.08116 1.57455 9.18023L9.46991 17.0756C9.76281 17.3685 10.2377 17.3685 10.5306 17.0756L18.432 9.17877C20.5264 7.07274 20.53 3.67903 18.4306 1.57958C16.3277 -0.523313 12.9228 -0.52331 10.8199 1.57958ZM17.3684 8.12105L10.0002 15.4846L2.63521 8.11957C1.12192 6.60629 1.12192 4.15277 2.63521 2.63949C4.14849 1.12621 6.602 1.12621 8.11528 2.63949L9.47273 3.99694C9.77059 4.2948 10.2553 4.289 10.5459 3.98409L11.8806 2.64024C13.3977 1.12314 15.8528 1.12313 17.3699 2.64024C18.8836 4.15388 18.881 6.60012 17.3684 8.12105Z" fill="#242424"/>
</svg>
