<svg width="24" height="25" viewBox="0 0 24 25" fill="none" xmlns="http://www.w3.org/2000/svg">
<path d="M12 21.2387C12 21.2387 2.625 15.9887 2.625 9.61372C2.625 8.48674 3.01546 7.39456 3.72996 6.52302C4.44445 5.65148 5.43884 5.0544 6.54393 4.83339C7.64903 4.61237 8.79657 4.78105 9.79131 5.31075C10.7861 5.84044 11.5665 6.69843 12 7.73872C12.4335 6.69843 13.2139 5.84044 14.2087 5.31075C15.2034 4.78105 16.351 4.61237 17.4561 4.83339C18.5612 5.0544 19.5555 5.65148 20.27 6.52302C20.9845 7.39456 21.375 8.48674 21.375 9.61372C21.375 15.9887 12 21.2387 12 21.2387Z" stroke="#184EC9" stroke-width="1.5" stroke-linecap="round" stroke-linejoin="round"/>
</svg>
