<svg width="24" height="25" viewBox="0 0 24 25" fill="none" xmlns="http://www.w3.org/2000/svg">
<path d="M6 15.9887C7.65685 15.9887 9 14.6456 9 12.9887C9 11.3319 7.65685 9.98871 6 9.98871C4.34315 9.98871 3 11.3319 3 12.9887C3 14.6456 4.34315 15.9887 6 15.9887Z" stroke="#184EC9" stroke-width="1.5" stroke-linecap="round" stroke-linejoin="round"/>
<path d="M16.5 22.7387C18.1569 22.7387 19.5 21.3956 19.5 19.7387C19.5 18.0819 18.1569 16.7387 16.5 16.7387C14.8431 16.7387 13.5 18.0819 13.5 19.7387C13.5 21.3956 14.8431 22.7387 16.5 22.7387Z" stroke="#184EC9" stroke-width="1.5" stroke-linecap="round" stroke-linejoin="round"/>
<path d="M16.5 9.23871C18.1569 9.23871 19.5 7.89556 19.5 6.23871C19.5 4.58185 18.1569 3.23871 16.5 3.23871C14.8431 3.23871 13.5 4.58185 13.5 6.23871C13.5 7.89556 14.8431 9.23871 16.5 9.23871Z" stroke="#184EC9" stroke-width="1.5" stroke-linecap="round" stroke-linejoin="round"/>
<path d="M13.9781 7.8606L8.52188 11.3668" stroke="#184EC9" stroke-width="1.5" stroke-linecap="round" stroke-linejoin="round"/>
<path d="M8.52188 14.6106L13.9781 18.1168" stroke="#184EC9" stroke-width="1.5" stroke-linecap="round" stroke-linejoin="round"/>
</svg>
